                                                                        S      1
,,,7Hkryshka,41HAutoCAD 2020 — Русский (Russian),62HAutodesk TrG      1
anslation Framework DWG producer (atf_dwg_producer),32,38,7,99,15,,1.,2,G      2
2HMM,1,0.08,15H20191202.202902,0.01,10000.,,7Hunknown,11,0,15H20191202.1G      3
95316;                                                                  G      4
     186       1                       0                        00000000D      1
     186            -185       1       0                               0D      2
     514       2                                                00010000D      3
     514                       2       1                               0D      4
     510       4                                                00010000D      5
     510            -185       1       1                               0D      6
     510       5                                                00010000D      7
     510            -185       1       1                               0D      8
     510       6                                                00010000D      9
     510            -185       1       1                               0D     10
     510       7                                                00010000D     11
     510            -185       1       1                               0D     12
     510       8                                                00010000D     13
     510            -185       1       1                               0D     14
     510       9                                                00010000D     15
     510            -185       1       1                               0D     16
     510      10                                                00010000D     17
     510            -185       1       1                               0D     18
     510      11                                                00010000D     19
     510            -185       1       1                               0D     20
     510      12                                                00010000D     21
     510            -185       1       1                               0D     22
     510      13                                                00010000D     23
     510            -185       1       1                               0D     24
     510      14                                                00010000D     25
     510            -185       1       1                               0D     26
     510      15                                                00010000D     27
     510            -185       1       1                               0D     28
     510      16                                                00010000D     29
     510            -185       1       1                               0D     30
     510      17                                                00010000D     31
     510            -185       1       1                               0D     32
     510      18                                                00010000D     33
     510            -185       1       1                               0D     34
     510      19                                                00010000D     35
     510            -185       1       1                               0D     36
     508      20                                                00010000D     37
     508                       1       1                               0D     38
     508      21                                                00010000D     39
     508                       1       1                               0D     40
     508      22                                                00010000D     41
     508                       1       1                               0D     42
     508      23                                                00010000D     43
     508                       1       1                               0D     44
     508      24                                                00010000D     45
     508                       1       1                               0D     46
     508      25                                                00010000D     47
     508                       1       1                               0D     48
     508      26                                                00010000D     49
     508                       1       1                               0D     50
     508      27                                                00010000D     51
     508                       1       1                               0D     52
     508      28                                                00010000D     53
     508                       1       1                               0D     54
     508      29                                                00010000D     55
     508                       1       1                               0D     56
     508      30                                                00010000D     57
     508                       1       1                               0D     58
     508      31                                                00010000D     59
     508                       1       1                               0D     60
     508      32                                                00010000D     61
     508                       1       1                               0D     62
     508      33                                                00010000D     63
     508                       1       1                               0D     64
     508      34                                                00010000D     65
     508                       1       1                               0D     66
     508      35                                                00010000D     67
     508                       1       1                               0D     68
     508      36                                                00010000D     69
     508                       1       1                               0D     70
     508      37                                                00010000D     71
     508                       1       1                               0D     72
     126      38                                                00010000D     73
     126       0               2       0                               0D     74
     126      40                                                00010000D     75
     126       0               2       0                               0D     76
     126      42                                                00010000D     77
     126       0               2       0                               0D     78
     126      44                                                00010000D     79
     126       0               2       0                               0D     80
     126      46                                                00010000D     81
     126       0               2       0                               0D     82
     126      48                                                00010000D     83
     126       0               2       0                               0D     84
     126      50                                                00010000D     85
     126       0               2       0                               0D     86
     126      52                                                00010000D     87
     126       0               2       0                               0D     88
     126      54                                                00010000D     89
     126       0               2       0                               0D     90
     126      56                                                00010000D     91
     126       0               2       0                               0D     92
     126      58                                                00010000D     93
     126       0               2       0                               0D     94
     126      60                                                00010000D     95
     126       0               2       0                               0D     96
     126      62                                                00010000D     97
     126       0               2       0                               0D     98
     126      64                                                00010000D     99
     126       0               2       0                               0D    100
     126      66                                                00010000D    101
     126       0               2       0                               0D    102
     126      68                                                00010000D    103
     126       0               2       0                               0D    104
     126      70                                                00010000D    105
     126       0               2       0                               0D    106
     126      72                                                00010000D    107
     126       0               2       0                               0D    108
     126      74                                                00010000D    109
     126       0               2       0                               0D    110
     126      76                                                00010000D    111
     126       0               2       0                               0D    112
     126      78                                                00010000D    113
     126       0               2       0                               0D    114
     126      80                                                00010000D    115
     126       0               2       0                               0D    116
     126      82                                                00010000D    117
     126       0               2       0                               0D    118
     126      84                                                00010000D    119
     126       0               2       0                               0D    120
     126      86                                                00010000D    121
     126       0               2       0                               0D    122
     126      88                                                00010000D    123
     126       0               2       0                               0D    124
     126      90                                                00010000D    125
     126       0               2       0                               0D    126
     126      92                                                00010000D    127
     126       0               2       0                               0D    128
     126      94                                                00010000D    129
     126       0               2       0                               0D    130
     126      96                                                00010000D    131
     126       0               2       0                               0D    132
     126      98                                                00010000D    133
     126       0               2       0                               0D    134
     126     100                                                00010000D    135
     126       0               2       0                               0D    136
     126     102                                                00010000D    137
     126       0               2       0                               0D    138
     126     104                                                00010000D    139
     126       0               2       0                               0D    140
     126     106                                                00010000D    141
     126       0               2       0                               0D    142
     126     108                                                00010000D    143
     126       0               2       0                               0D    144
     128     110                                                00010000D    145
     128       0    -185       4       0                               0D    146
     128     114                                                00010000D    147
     128       0    -185       3       0                               0D    148
     128     117                                                00010000D    149
     128       0    -185       3       0                               0D    150
     128     120                                                00010000D    151
     128       0    -185       3       0                               0D    152
     128     123                                                00010000D    153
     128       0    -185       3       0                               0D    154
     128     126                                                00010000D    155
     128       0    -185       5       0                               0D    156
     128     131                                                00010000D    157
     128       0    -185       5       0                               0D    158
     128     136                                                00010000D    159
     128       0    -185       4       0                               0D    160
     128     140                                                00010000D    161
     128       0    -185       5       0                               0D    162
     128     145                                                00010000D    163
     128       0    -185       5       0                               0D    164
     128     150                                                00010000D    165
     128       0    -185       4       0                               0D    166
     128     154                                                00010000D    167
     128       0    -185       4       0                               0D    168
     128     158                                                00010000D    169
     128       0    -185       3       0                               0D    170
     128     161                                                00010000D    171
     128       0    -185       3       0                               0D    172
     128     164                                                00010000D    173
     128       0    -185       3       0                               0D    174
     128     167                                                00010000D    175
     128       0    -185       3       0                               0D    176
     502     170                                                00010000D    177
     502                       5       1                               0D    178
     504     175                                                00010001D    179
     504                      10       1                               0D    180
     406     185                                                00000000D    181
     406                       1      15                               0D    182
     406     186                       0                        00000000D    183
     406            -185       1       3                               0D    184
     314     187                                                00000200D    185
     314                       1       0                               0D    186
186,3,1,0,0,1,181;                                                     1P      1
514,16,5,1,7,1,9,1,11,1,13,1,15,1,17,1,19,1,21,1,23,1,25,1,27,1,       3P      2
29,1,31,1,33,1,35,1;                                                   3P      3
510,145,1,1,37;                                                        5P      4
510,147,1,1,39;                                                        7P      5
510,149,1,1,41;                                                        9P      6
510,151,1,1,43;                                                       11P      7
510,153,1,1,45;                                                       13P      8
510,155,2,1,47,49;                                                    15P      9
510,157,1,1,51;                                                       17P     10
510,159,1,1,53;                                                       19P     11
510,161,1,1,55;                                                       21P     12
510,163,1,1,57;                                                       23P     13
510,165,1,1,59;                                                       25P     14
510,167,2,1,61,63;                                                    27P     15
510,169,1,1,65;                                                       29P     16
510,171,1,1,67;                                                       31P     17
510,173,1,1,69;                                                       33P     18
510,175,1,1,71;                                                       35P     19
508,4,0,179,1,0,0,0,179,2,0,0,0,179,3,0,0,0,179,4,0,0;                37P     20
508,4,0,179,5,0,0,0,179,6,0,0,0,179,7,1,0,0,179,4,1,0;                39P     21
508,4,0,179,8,0,0,0,179,9,0,0,0,179,5,1,0,0,179,3,1,0;                41P     22
508,4,0,179,10,0,0,0,179,11,0,0,0,179,8,1,0,0,179,2,1,0;              43P     23
508,4,0,179,7,0,0,0,179,12,0,0,0,179,10,1,0,0,179,1,1,0;              45P     24
508,4,0,179,13,1,0,0,179,14,1,0,0,179,15,1,0,0,179,16,1,0;            47P     25
508,4,0,179,17,1,0,0,179,18,1,0,0,179,19,1,0,0,179,20,1,0;            49P     26
508,4,0,179,21,1,0,0,179,22,1,0,0,179,23,1,0,0,179,24,1,0;            51P     27
508,4,0,179,25,1,0,0,179,22,0,0,0,179,26,0,0,0,179,16,0,0;            53P     28
508,4,0,179,27,1,0,0,179,23,0,0,0,179,25,0,0,0,179,15,0,0;            55P     29
508,4,0,179,28,1,0,0,179,24,0,0,0,179,27,0,0,0,179,14,0,0;            57P     30
508,4,0,179,26,1,0,0,179,21,0,0,0,179,28,0,0,0,179,13,0,0;            59P     31
508,4,0,179,29,1,0,0,179,30,1,0,0,179,31,1,0,0,179,32,1,0;            61P     32
508,4,0,179,6,1,0,0,179,9,1,0,0,179,11,1,0,0,179,12,1,0;              63P     33
508,4,0,179,33,1,0,0,179,17,0,0,0,179,34,0,0,0,179,32,0,0;            65P     34
508,4,0,179,35,1,0,0,179,18,0,0,0,179,33,0,0,0,179,31,0,0;            67P     35
508,4,0,179,36,1,0,0,179,19,0,0,0,179,35,0,0,0,179,30,0,0;            69P     36
508,4,0,179,34,1,0,0,179,20,0,0,0,179,36,0,0,0,179,29,0,0;            71P     37
126,1,1,0,0,1,0,-30.,-30.,30.,30.,1.,1.,115.,65.,2.,115.,5.,2.,       73P     38
-30.,30.,0.,0.,0.;                                                    73P     39
126,1,1,0,0,1,0,-55.,-55.,55.,55.,1.,1.,5.,65.,2.,115.,65.,2.,        75P     40
-55.,55.,0.,0.,0.;                                                    75P     41
126,1,1,0,0,1,0,-30.,-30.,30.,30.,1.,1.,5.,5.,2.,5.,65.,2.,-30.,      77P     42
30.,0.,0.,0.;                                                         77P     43
126,1,1,0,0,1,0,-55.,-55.,55.,55.,1.,1.,115.,5.,2.,5.,5.,2.,          79P     44
-55.,55.,0.,0.,0.;                                                    79P     45
126,1,1,0,0,1,0,-2.,-2.,2.,2.,1.,1.,5.,5.,6.,5.,5.,2.,-2.,2.,0.,      81P     46
0.,0.;                                                                81P     47
126,1,1,0,0,1,0,-55.,-55.,55.,55.,1.,1.,115.,5.,6.,5.,5.,6.,          83P     48
-55.,55.,0.,0.,0.;                                                    83P     49
126,1,1,0,0,1,0,-2.,-2.,2.,2.,1.,1.,115.,5.,6.,115.,5.,2.,-2.,        85P     50
2.,0.,0.,0.;                                                          85P     51
126,1,1,0,0,1,0,-2.,-2.,2.,2.,1.,1.,5.,65.,6.,5.,65.,2.,-2.,2.,       87P     52
0.,0.,0.;                                                             87P     53
126,1,1,0,0,1,0,-30.,-30.,30.,30.,1.,1.,5.,5.,6.,5.,65.,6.,-30.,      89P     54
30.,0.,0.,0.;                                                         89P     55
126,1,1,0,0,1,0,-2.,-2.,2.,2.,1.,1.,115.,65.,6.,115.,65.,2.,-2.,      91P     56
2.,0.,0.,0.;                                                          91P     57
126,1,1,0,0,1,0,-55.,-55.,55.,55.,1.,1.,5.,65.,6.,115.,65.,6.,        93P     58
-55.,55.,0.,0.,0.;                                                    93P     59
126,1,1,0,0,1,0,-30.,-30.,30.,30.,1.,1.,115.,65.,6.,115.,5.,6.,       95P     60
-30.,30.,0.,0.,0.;                                                    95P     61
126,1,1,0,0,1,0,-35.,-35.,35.,35.,1.,1.,120.,0.,2.,120.,70.,2.,       97P     62
-35.,35.,0.,0.,0.;                                                    97P     63
126,1,1,0,0,1,0,-60.,-60.,60.,60.,1.,1.,120.,70.,2.,0.,70.,2.,        99P     64
-60.,60.,0.,0.,0.;                                                    99P     65
126,1,1,0,0,1,0,-35.,-35.,35.,35.,1.,1.,0.,70.,2.,0.,0.,2.,-35.,     101P     66
35.,0.,0.,0.;                                                        101P     67
126,1,1,0,0,1,0,-60.,-60.,60.,60.,1.,1.,0.,0.,2.,120.,0.,2.,         103P     68
-60.,60.,0.,0.,0.;                                                   103P     69
126,1,1,0,0,1,0,-57.,-57.,57.,57.,1.,1.,117.,3.,2.,3.,3.,2.,         105P     70
-57.,57.,0.,0.,0.;                                                   105P     71
126,1,1,0,0,1,0,-32.,-32.,32.,32.,1.,1.,3.,3.,2.,3.,67.,2.,-32.,     107P     72
32.,0.,0.,0.;                                                        107P     73
126,1,1,0,0,1,0,-57.,-57.,57.,57.,1.,1.,3.,67.,2.,117.,67.,2.,       109P     74
-57.,57.,0.,0.,0.;                                                   109P     75
126,1,1,0,0,1,0,-32.,-32.,32.,32.,1.,1.,117.,67.,2.,117.,3.,2.,      111P     76
-32.,32.,0.,0.,0.;                                                   111P     77
126,1,1,0,0,1,0,-35.,-35.,35.,35.,1.,1.,120.,70.,0.,120.,0.,0.,      113P     78
-35.,35.,0.,0.,0.;                                                   113P     79
126,1,1,0,0,1,0,-60.,-60.,60.,60.,1.,1.,120.,0.,0.,0.,0.,0.,         115P     80
-60.,60.,0.,0.,0.;                                                   115P     81
126,1,1,0,0,1,0,-35.,-35.,35.,35.,1.,1.,0.,0.,0.,0.,70.,0.,-35.,     117P     82
35.,0.,0.,0.;                                                        117P     83
126,1,1,0,0,1,0,-60.,-60.,60.,60.,1.,1.,0.,70.,0.,120.,70.,0.,       119P     84
-60.,60.,0.,0.,0.;                                                   119P     85
126,1,1,0,0,1,0,-1.,-1.,1.,1.,1.,1.,0.,0.,2.,0.,0.,0.,-1.,1.,0.,     121P     86
0.,0.;                                                               121P     87
126,1,1,0,0,1,0,-1.,-1.,1.,1.,1.,1.,120.,0.,2.,120.,0.,0.,-1.,       123P     88
1.,0.,0.,0.;                                                         123P     89
126,1,1,0,0,1,0,-1.,-1.,1.,1.,1.,1.,0.,70.,2.,0.,70.,0.,-1.,1.,      125P     90
0.,0.,0.;                                                            125P     91
126,1,1,0,0,1,0,-1.,-1.,1.,1.,1.,1.,120.,70.,2.,120.,70.,0.,-1.,     127P     92
1.,0.,0.,0.;                                                         127P     93
126,1,1,0,0,1,0,-32.,-32.,32.,32.,1.,1.,117.,3.,6.,117.,67.,6.,      129P     94
-32.,32.,0.,0.,0.;                                                   129P     95
126,1,1,0,0,1,0,-57.,-57.,57.,57.,1.,1.,117.,67.,6.,3.,67.,6.,       131P     96
-57.,57.,0.,0.,0.;                                                   131P     97
126,1,1,0,0,1,0,-32.,-32.,32.,32.,1.,1.,3.,67.,6.,3.,3.,6.,-32.,     133P     98
32.,0.,0.,0.;                                                        133P     99
126,1,1,0,0,1,0,-57.,-57.,57.,57.,1.,1.,3.,3.,6.,117.,3.,6.,         135P    100
-57.,57.,0.,0.,0.;                                                   135P    101
126,1,1,0,0,1,0,-2.,-2.,2.,2.,1.,1.,3.,3.,6.,3.,3.,2.,-2.,2.,0.,     137P    102
0.,0.;                                                               137P    103
126,1,1,0,0,1,0,-2.,-2.,2.,2.,1.,1.,117.,3.,6.,117.,3.,2.,-2.,       139P    104
2.,0.,0.,0.;                                                         139P    105
126,1,1,0,0,1,0,-2.,-2.,2.,2.,1.,1.,3.,67.,6.,3.,67.,2.,-2.,2.,      141P    106
0.,0.,0.;                                                            141P    107
126,1,1,0,0,1,0,-2.,-2.,2.,2.,1.,1.,117.,67.,6.,117.,67.,2.,-2.,     143P    108
2.,0.,0.,0.;                                                         143P    109
128,1,1,1,1,0,0,1,0,0,-55.001,-55.001,55.001,55.001,-30.001,         145P    110
-30.001,30.001,30.001,1.,1.,1.,1.,4.999,4.999,2.,115.001,4.999,      145P    111
2.,4.999,65.001,2.,115.001,65.001,2.,-55.001,55.001,-30.001,         145P    112
30.001;                                                              145P    113
128,1,1,1,1,0,0,1,0,0,-2.001,-2.001,2.001,2.001,-55.001,-55.001,     147P    114
55.001,55.001,1.,1.,1.,1.,4.999,5.,1.999,4.999,5.,6.001,115.001,     147P    115
5.,1.999,115.001,5.,6.001,-2.001,2.001,-55.001,55.001;               147P    116
128,1,1,1,1,0,0,1,0,0,-2.001,-2.001,2.001,2.001,-30.001,-30.001,     149P    117
30.001,30.001,1.,1.,1.,1.,5.,4.999,6.001,5.,4.999,1.999,5.,          149P    118
65.001,6.001,5.,65.001,1.999,-2.001,2.001,-30.001,30.001;            149P    119
128,1,1,1,1,0,0,1,0,0,-2.001,-2.001,2.001,2.001,-55.001,-55.001,     151P    120
55.001,55.001,1.,1.,1.,1.,4.999,65.,6.001,4.999,65.,1.999,           151P    121
115.001,65.,6.001,115.001,65.,1.999,-2.001,2.001,-55.001,55.001;     151P    122
128,1,1,1,1,0,0,1,0,0,-2.001,-2.001,2.001,2.001,-30.001,-30.001,     153P    123
30.001,30.001,1.,1.,1.,1.,115.,4.999,1.999,115.,4.999,6.001,         153P    124
115.,65.001,1.999,115.,65.001,6.001,-2.001,2.001,-30.001,30.001;     153P    125
128,1,1,1,1,0,0,1,0,0,-60.001,-60.001,60.001,60.001,-35.001,         155P    126
-35.001,35.001,35.001,1.,1.,1.,1.,-0.000999999999997669,             155P    127
-0.000999999999997669,2.,120.001,-0.000999999999997669,2.,           155P    128
-0.000999999999997669,70.001,2.,120.001,70.001,2.,-60.001,           155P    129
60.001,-35.001,35.001;                                               155P    130
128,1,1,1,1,0,0,1,0,0,-60.001,-60.001,60.001,60.001,-35.001,         157P    131
-35.001,35.001,35.001,1.,1.,1.,1.,120.001,-0.000999999999997669,     157P    132
0.,-0.000999999999997669,-0.000999999999997669,0.,120.001,           157P    133
70.001,0.,-0.000999999999997669,70.001,0.,-60.001,60.001,            157P    134
-35.001,35.001;                                                      157P    135
128,1,1,1,1,0,0,1,0,0,-1.001,-1.001,1.001,1.001,-60.001,-60.001,     159P    136
60.001,60.001,1.,1.,1.,1.,-0.000999999999997669,0.,2.001,            159P    137
-0.000999999999997669,0.,-0.000999999999999446,120.001,0.,2.001,     159P    138
120.001,0.,-0.000999999999999446,-1.001,1.001,-60.001,60.001;        159P    139
128,1,1,1,1,0,0,1,0,0,-1.001,-1.001,1.001,1.001,-35.001,-35.001,     161P    140
35.001,35.001,1.,1.,1.,1.,0.,-0.000999999999997669,                  161P    141
-0.000999999999999446,0.,-0.000999999999997669,2.001,0.,70.001,      161P    142
-0.000999999999999446,0.,70.001,2.001,-1.001,1.001,-35.001,          161P    143
35.001;                                                              161P    144
128,1,1,1,1,0,0,1,0,0,-1.001,-1.001,1.001,1.001,-60.001,-60.001,     163P    145
60.001,60.001,1.,1.,1.,1.,-0.000999999999997669,70.,                 163P    146
-0.000999999999999446,-0.000999999999997669,70.,2.001,120.001,       163P    147
70.,-0.000999999999999446,120.001,70.,2.001,-1.001,1.001,            163P    148
-60.001,60.001;                                                      163P    149
128,1,1,1,1,0,0,1,0,0,-1.001,-1.001,1.001,1.001,-35.001,-35.001,     165P    150
35.001,35.001,1.,1.,1.,1.,120.,-0.000999999999997669,2.001,120.,     165P    151
-0.000999999999997669,-0.000999999999999446,120.,70.001,2.001,       165P    152
120.,70.001,-0.000999999999999446,-1.001,1.001,-35.001,35.001;       165P    153
128,1,1,1,1,0,0,1,0,0,-57.001,-57.001,57.001,57.001,-32.001,         167P    154
-32.001,32.001,32.001,1.,1.,1.,1.,2.999,2.999,6.,117.001,2.999,      167P    155
6.,2.999,67.001,6.,117.001,67.001,6.,-57.001,57.001,-32.001,         167P    156
32.001;                                                              167P    157
128,1,1,1,1,0,0,1,0,0,-2.001,-2.001,2.001,2.001,-57.001,-57.001,     169P    158
57.001,57.001,1.,1.,1.,1.,2.999,3.,6.001,2.999,3.,1.999,117.001,     169P    159
3.,6.001,117.001,3.,1.999,-2.001,2.001,-57.001,57.001;               169P    160
128,1,1,1,1,0,0,1,0,0,-2.001,-2.001,2.001,2.001,-32.001,-32.001,     171P    161
32.001,32.001,1.,1.,1.,1.,3.,2.999,1.999,3.,2.999,6.001,3.,          171P    162
67.001,1.999,3.,67.001,6.001,-2.001,2.001,-32.001,32.001;            171P    163
128,1,1,1,1,0,0,1,0,0,-2.001,-2.001,2.001,2.001,-57.001,-57.001,     173P    164
57.001,57.001,1.,1.,1.,1.,2.999,67.,1.999,2.999,67.,6.001,           173P    165
117.001,67.,1.999,117.001,67.,6.001,-2.001,2.001,-57.001,57.001;     173P    166
128,1,1,1,1,0,0,1,0,0,-2.001,-2.001,2.001,2.001,-32.001,-32.001,     175P    167
32.001,32.001,1.,1.,1.,1.,117.,2.999,6.001,117.,2.999,1.999,         175P    168
117.,67.001,6.001,117.,67.001,1.999,-2.001,2.001,-32.001,32.001;     175P    169
502,24,115.,65.,2.,115.,5.,2.,5.,65.,2.,5.,5.,2.,5.,5.,6.,115.,      177P    170
5.,6.,5.,65.,6.,115.,65.,6.,120.,0.,2.,120.,70.,2.,0.,70.,2.,0.,     177P    171
0.,2.,117.,3.,2.,3.,3.,2.,3.,67.,2.,117.,67.,2.,120.,70.,0.,         177P    172
120.,0.,0.,0.,0.,0.,0.,70.,0.,117.,3.,6.,117.,67.,6.,3.,67.,6.,      177P    173
3.,3.,6.;                                                            177P    174
504,36,73,177,1,177,2,75,177,3,177,1,77,177,4,177,3,79,177,2,        179P    175
177,4,81,177,5,177,4,83,177,6,177,5,85,177,6,177,2,87,177,7,177,     179P    176
3,89,177,5,177,7,91,177,8,177,1,93,177,7,177,8,95,177,8,177,6,       179P    177
97,177,9,177,10,99,177,10,177,11,101,177,11,177,12,103,177,12,       179P    178
177,9,105,177,13,177,14,107,177,14,177,15,109,177,15,177,16,111,     179P    179
177,16,177,13,113,177,17,177,18,115,177,18,177,19,117,177,19,        179P    180
177,20,119,177,20,177,17,121,177,12,177,19,123,177,9,177,18,125,     179P    181
177,11,177,20,127,177,10,177,17,129,177,21,177,22,131,177,22,        179P    182
177,23,133,177,23,177,24,135,177,24,177,21,137,177,24,177,14,        179P    183
139,177,21,177,13,141,177,23,177,15,143,177,22,177,16;               179P    184
406,1,2H64;                                                          181P    185
406,2,0,1H0;                                                         183P    186
314,100.,100.,100.,;                                                 185P    187
S      1G      4D    186P    187                                        T      1
